<svg width="80" height="80" viewBox="0 0 80 80" fill="none" xmlns="http://www.w3.org/2000/svg">
<path d="M67.8334 29.7433L66.6134 29.0633L66.2367 28.85C65.328 28.3046 64.5623 27.5504 64.0034 26.65C63.9434 26.56 63.89 26.4633 63.7834 26.2767C63.0647 25.1231 62.7158 23.7774 62.7834 22.42L62.8034 21.0033C62.8434 18.7367 62.8634 17.5967 62.5434 16.5767C62.2602 15.6691 61.7863 14.8327 61.1534 14.1233C60.44 13.3233 59.45 12.75 57.4667 11.61L55.82 10.66C53.8467 9.52333 52.8567 8.95334 51.8067 8.73667C50.879 8.54471 49.9211 8.55266 48.9967 8.76C47.9534 8.99334 46.9767 9.58 45.0267 10.7467L45.0167 10.7533L43.8367 11.4567C43.65 11.57 43.5534 11.6233 43.46 11.6767C42.5334 12.1933 41.5 12.4767 40.4367 12.51C40.33 12.5167 40.22 12.5167 40.0034 12.5167L39.57 12.5133C38.5064 12.4795 37.4663 12.1914 36.5367 11.6733C36.4434 11.6233 36.3534 11.5667 36.1667 11.4533L34.9767 10.74C33.0134 9.56 32.03 8.97334 30.98 8.73667C30.0522 8.52899 29.0907 8.52217 28.16 8.71667C27.1067 8.93667 26.12 9.51 24.1434 10.6567L24.1334 10.66L22.5067 11.6033L22.49 11.6167C20.53 12.75 19.5467 13.3233 18.84 14.12C18.2103 14.828 17.7387 15.6621 17.4567 16.5667C17.14 17.59 17.1567 18.73 17.1967 21.01L17.22 22.4233C17.22 22.64 17.23 22.7467 17.2267 22.85C17.2094 24.0611 16.8626 25.2446 16.2234 26.2733C16.1134 26.46 16.0634 26.5533 16.0067 26.64C15.4447 27.5472 14.673 28.3063 13.7567 28.8533L13.3834 29.0633L12.18 29.73C10.1734 30.84 9.17002 31.3967 8.44336 32.19C7.79729 32.8894 7.30855 33.7192 7.01002 34.6233C6.67669 35.6467 6.67669 36.79 6.68002 39.0833L6.68669 40.96C6.69002 43.2367 6.69669 44.3733 7.03336 45.39C7.33064 46.2886 7.81584 47.1135 8.45669 47.81C9.18336 48.5967 10.1767 49.15 12.1667 50.2567L13.36 50.92C13.5634 51.0333 13.6667 51.0867 13.7634 51.1467C14.8079 51.7728 15.661 52.6732 16.23 53.75L16.4534 54.15C17.0164 55.213 17.2813 56.4086 17.22 57.61L17.1967 58.9667C17.1567 61.2533 17.14 62.4 17.46 63.4233C17.7434 64.33 18.2167 65.1667 18.85 65.8767C19.5634 66.6767 20.5567 67.2467 22.5367 68.39L24.1834 69.34C26.16 70.4767 27.1467 71.0467 28.1967 71.2633C29.1244 71.4553 30.0823 71.4473 31.0067 71.24C32.0534 71.0067 33.03 70.42 34.9867 69.2467L36.1667 68.54L36.5434 68.32C37.47 67.8067 38.5034 67.52 39.5667 67.4867L40 67.4833H40.4334C41.4934 67.5167 42.5334 67.8067 43.4667 68.3233L43.7734 68.5067L45.0267 69.26C46.9934 70.44 47.9734 71.0267 49.0234 71.26C49.9507 71.4699 50.9122 71.479 51.8434 71.2867C52.8934 71.0667 53.8867 70.49 55.8634 69.3433L57.5134 68.3867C59.4734 67.2467 60.4567 66.6767 61.1634 65.88C61.7967 65.17 62.2634 64.3367 62.5467 63.4333C62.8634 62.4167 62.8467 61.2867 62.8067 59.04L62.78 57.5733V57.15C62.7957 55.9381 63.1414 54.7534 63.78 53.7233L63.9967 53.3567C64.5587 52.4494 65.3303 51.6904 66.2467 51.1433L66.6134 50.94L66.62 50.9367L67.8234 50.27C69.83 49.1567 70.8334 48.6033 71.5634 47.81C72.21 47.11 72.6967 46.2767 72.9934 45.3767C73.3267 44.36 73.3267 43.22 73.32 40.9533L73.3134 39.04C73.31 36.7633 73.3067 35.6233 72.97 34.6067C72.6713 33.709 72.185 32.8852 71.5434 32.19C70.82 31.4033 69.8267 30.85 67.84 29.7467L67.8334 29.7433Z" stroke="#1B2E4B" stroke-width="6.66667" stroke-linecap="round" stroke-linejoin="round"/>
<path d="M26.6667 40C26.6667 43.5362 28.0714 46.9276 30.5719 49.4281C33.0724 51.9286 36.4638 53.3333 40 53.3333C43.5362 53.3333 46.9276 51.9286 49.4281 49.4281C51.9286 46.9276 53.3334 43.5362 53.3334 40C53.3334 36.4638 51.9286 33.0724 49.4281 30.5719C46.9276 28.0714 43.5362 26.6667 40 26.6667C36.4638 26.6667 33.0724 28.0714 30.5719 30.5719C28.0714 33.0724 26.6667 36.4638 26.6667 40Z" stroke="#1B2E4B" stroke-width="6.66667" stroke-linecap="round" stroke-linejoin="round"/>
</svg>
