<svg width="100" height="100" viewBox="0 0 100 100" fill="none" xmlns="http://www.w3.org/2000/svg">
<circle cx="50" cy="50" r="50" fill="#6FCF97"/>
<path fill-rule="evenodd" clip-rule="evenodd" d="M46.77 52.67L28.8833 19.0267C28.7806 18.8334 28.7169 18.6218 28.6959 18.4039C28.6749 18.186 28.6971 17.9662 28.7611 17.7568C28.8903 17.3341 29.1822 16.98 29.5725 16.7725C29.9628 16.565 30.4196 16.521 30.8423 16.6502C31.0516 16.7142 31.2463 16.8188 31.4152 16.958C31.5841 17.0973 31.7239 17.2684 31.8267 17.4617L49.715 51.105L52.2517 49.755C53.0248 49.344 53.8713 49.0893 54.7429 49.0054C55.6145 48.9216 56.4941 49.0103 57.3314 49.2664C58.1687 49.5226 58.9473 49.9412 59.6228 50.4983C60.2983 51.0554 60.8575 51.7401 61.2683 52.5133L62.3483 54.545L73.7983 71.3017L59.235 79.0433L54.19 69.0717L51.2167 70.5767L56.2917 80.61L50.0483 83.9283L42.5567 65.065L41.4783 63.035C41.0672 62.262 40.8125 61.4155 40.7285 60.544C40.6446 59.6725 40.7331 58.793 40.9891 57.9557C41.2451 57.1184 41.6635 56.3397 42.2204 55.6642C42.7774 54.9886 43.4619 54.4293 44.235 54.0183L46.77 52.67ZM53.815 52.7L45.7983 56.9617C45.4118 57.1672 45.0695 57.4468 44.791 57.7846C44.5126 58.1224 44.3034 58.5117 44.1754 58.9303C44.0474 59.349 44.0031 59.7887 44.0451 60.2245C44.0871 60.6602 44.2145 61.0835 44.42 61.47L45.4983 63.5L59.4033 56.1067L58.3233 54.0783C58.1178 53.6918 57.8382 53.3495 57.5004 53.071C57.1626 52.7926 56.7733 52.5834 56.3547 52.4554C55.936 52.3274 55.4962 52.2831 55.0605 52.3251C54.6247 52.367 54.2015 52.4944 53.815 52.7Z" fill="#FAF6ED"/>
<path d="M39.6134 68.9333C39.3306 68.5937 38.9246 68.3803 38.4845 68.34C38.0445 68.2996 37.6064 68.4357 37.2667 68.7183H37.27L37.2517 68.7317L37.1484 68.8117C36.9986 68.9237 36.8458 69.0315 36.69 69.135C36.2767 69.41 35.66 69.785 34.8667 70.1617C32.8275 71.1417 30.5958 71.6558 28.3334 71.6667C27.8913 71.6667 27.4674 71.8422 27.1548 72.1548C26.8423 72.4674 26.6667 72.8913 26.6667 73.3333C26.6667 73.7753 26.8423 74.1993 27.1548 74.5118C27.4674 74.8244 27.8913 75 28.3334 75C31.0917 74.9893 33.8131 74.3648 36.3 73.1717C37.0753 72.8035 37.8238 72.3813 38.54 71.9083C38.8079 71.729 39.0692 71.54 39.3234 71.3417L39.3734 71.3033L39.39 71.29L39.395 71.2833H39.3984L39.4 71.28C39.7394 70.997 39.9525 70.5909 39.9925 70.1508C40.0325 69.7108 39.8961 69.2728 39.6134 68.9333ZM43.0534 77.4083C43.1749 77.5904 43.2593 77.7947 43.3018 78.0094C43.3444 78.2241 43.3442 78.4451 43.3014 78.6598C43.2585 78.8744 43.1738 79.0786 43.052 79.2605C42.9302 79.4424 42.7738 79.5985 42.5917 79.72L42.5884 79.7233L42.5817 79.7267L42.565 79.7367L42.5134 79.77L42.3234 79.8917C41.3258 80.503 40.2891 81.0481 39.22 81.5233C37.25 82.3983 34.5017 83.3333 31.6667 83.3333C31.2247 83.3333 30.8007 83.1577 30.4882 82.8452C30.1756 82.5326 30 82.1087 30 81.6667C30 81.2246 30.1756 80.8007 30.4882 80.4881C30.8007 80.1756 31.2247 80 31.6667 80C33.83 80 36.0834 79.2683 37.865 78.4767C38.7938 78.0637 39.6946 77.5904 40.5617 77.06C40.6272 77.0211 40.675 76.9911 40.705 76.97L40.7384 76.95L40.7417 76.9467C40.9238 76.8252 41.128 76.7407 41.3427 76.6982C41.5575 76.6556 41.7785 76.6558 41.9932 76.6986C42.2078 76.7415 42.4119 76.8263 42.5938 76.948C42.7758 77.0698 42.9319 77.2262 43.0534 77.4083Z" fill="#FAF6ED"/>
</svg>
