<svg width="100" height="100" viewBox="0 0 100 100" fill="none" xmlns="http://www.w3.org/2000/svg">
<path fill-rule="evenodd" clip-rule="evenodd" d="M17.575 17.05C16.6667 18.8333 16.6667 21.1667 16.6667 25.8333V28.3917L91.625 21.575C91.5459 19.5417 91.3334 18.1833 90.7583 17.05C89.9594 15.4821 88.6846 14.2073 87.1167 13.4083C85.3334 12.5 83 12.5 78.3333 12.5H30C25.3334 12.5 23 12.5 21.2167 13.4083C19.6487 14.2073 18.374 15.4821 17.575 17.05ZM91.6667 29.9417L71.3959 31.7833L81.8375 87.4792C84.3042 87.425 85.85 87.2375 87.1167 86.5917C88.6846 85.7927 89.9594 84.518 90.7583 82.95C91.6667 81.1667 91.6667 78.8333 91.6667 74.1667V29.9417ZM73.3667 87.5L63.0583 32.5417L16.6667 36.7583V74.1667C16.6667 78.8333 16.6667 81.1667 17.575 82.95C18.374 84.518 19.6487 85.7927 21.2167 86.5917C23 87.5 25.3334 87.5 30 87.5H73.3667ZM56.25 62.625C56.25 71.6167 47.3334 77.9333 43.4459 80.2625C42.9084 80.5849 42.2934 80.7553 41.6667 80.7553C41.0399 80.7553 40.425 80.5849 39.8875 80.2625C36 77.9333 27.0834 71.6167 27.0834 62.6208C27.0834 53.8 34.15 47.9167 41.6667 47.9167C49.4459 47.9167 56.25 53.8 56.25 62.625Z" fill="#1B2E4B"/>
<path d="M41.6667 66.6667C43.9679 66.6667 45.8333 64.8012 45.8333 62.5C45.8333 60.1988 43.9679 58.3333 41.6667 58.3333C39.3655 58.3333 37.5 60.1988 37.5 62.5C37.5 64.8012 39.3655 66.6667 41.6667 66.6667Z" fill="#1B2E4B"/>
</svg>
