<svg width="100" height="100" viewBox="0 0 100 100" fill="none" xmlns="http://www.w3.org/2000/svg">
<circle cx="50" cy="50" r="50" fill="#1B2E4B"/>
<path d="M44.7778 58.6667L59.1944 50.3333L44.7778 42V58.6667ZM76.8889 36.9167C77.25 38.2222 77.5 39.9722 77.6666 42.1944C77.8611 44.4167 77.9444 46.3333 77.9444 48L78.1111 50.3333C78.1111 56.4167 77.6666 60.8889 76.8889 63.75C76.1944 66.25 74.5833 67.8611 72.0833 68.5555C70.7778 68.9167 68.3889 69.1667 64.7222 69.3333C61.1111 69.5278 57.8055 69.6111 54.75 69.6111L50.3333 69.7778C38.6944 69.7778 31.4444 69.3333 28.5833 68.5555C26.0833 67.8611 24.4722 66.25 23.7778 63.75C23.4167 62.4444 23.1667 60.6944 23 58.4722C22.8055 56.25 22.7222 54.3333 22.7222 52.6667L22.5555 50.3333C22.5555 44.25 23 39.7778 23.7778 36.9167C24.4722 34.4167 26.0833 32.8056 28.5833 32.1111C29.8889 31.75 32.2778 31.5 35.9444 31.3333C39.5555 31.1389 42.8611 31.0556 45.9166 31.0556L50.3333 30.8889C61.9722 30.8889 69.2222 31.3333 72.0833 32.1111C74.5833 32.8056 76.1944 34.4167 76.8889 36.9167Z" fill="#F8FAFC"/>
</svg>
