<svg width="100" height="100" viewBox="0 0 100 100" fill="none" xmlns="http://www.w3.org/2000/svg">
<path opacity="0.5" d="M50 91.6667C32.3208 91.6667 23.4833 91.6667 17.9917 85.5625C12.5 79.4667 12.5 69.6417 12.5 50C12.5 30.3583 12.5 20.5375 17.9917 14.4333C23.4833 8.32917 32.325 8.33334 50 8.33334C67.675 8.33334 76.5167 8.33334 82.0083 14.4333C87.5 20.5417 87.5 30.3583 87.5 50C87.5 69.6417 87.5 79.4625 82.0083 85.5625C76.5167 91.6625 67.675 91.6667 50 91.6667Z" fill="#2E9CDB"/>
<path d="M62.5 25H37.5C35.5625 25 34.5958 25 33.8 25.2125C32.7411 25.4966 31.7756 26.0543 31.0003 26.8295C30.2251 27.6048 29.6674 28.5703 29.3833 29.6292C29.1666 30.4333 29.1666 31.4 29.1666 33.3333C29.1666 35.2667 29.1666 36.2375 29.3791 37.0333C29.6633 38.0922 30.2209 39.0577 30.9962 39.833C31.7714 40.6082 32.7369 41.1659 33.7958 41.45C34.6 41.6667 35.5666 41.6667 37.5 41.6667H62.5C64.4375 41.6667 65.4041 41.6667 66.2 41.4542C67.2588 41.17 68.2244 40.6124 68.9996 39.8371C69.7748 39.0619 70.3325 38.0964 70.6166 37.0375C70.8333 36.2333 70.8333 35.2667 70.8333 33.3333C70.8333 31.4 70.8333 30.4292 70.6208 29.6333C70.3367 28.5744 69.779 27.6089 69.0038 26.8337C68.2285 26.0585 67.263 25.5008 66.2041 25.2167C65.4041 25 64.4333 25 62.5 25ZM33.3333 58.3333C34.4384 58.3333 35.4982 57.8943 36.2796 57.1129C37.061 56.3315 37.5 55.2717 37.5 54.1667C37.5 53.0616 37.061 52.0018 36.2796 51.2204C35.4982 50.439 34.4384 50 33.3333 50C32.2282 50 31.1684 50.439 30.387 51.2204C29.6056 52.0018 29.1666 53.0616 29.1666 54.1667C29.1666 55.2717 29.6056 56.3315 30.387 57.1129C31.1684 57.8943 32.2282 58.3333 33.3333 58.3333ZM33.3333 75C34.4384 75 35.4982 74.561 36.2796 73.7796C37.061 72.9982 37.5 71.9384 37.5 70.8333C37.5 69.7283 37.061 68.6685 36.2796 67.8871C35.4982 67.1056 34.4384 66.6667 33.3333 66.6667C32.2282 66.6667 31.1684 67.1056 30.387 67.8871C29.6056 68.6685 29.1666 69.7283 29.1666 70.8333C29.1666 71.9384 29.6056 72.9982 30.387 73.7796C31.1684 74.561 32.2282 75 33.3333 75ZM50 58.3333C51.105 58.3333 52.1648 57.8943 52.9462 57.1129C53.7276 56.3315 54.1666 55.2717 54.1666 54.1667C54.1666 53.0616 53.7276 52.0018 52.9462 51.2204C52.1648 50.439 51.105 50 50 50C48.8949 50 47.8351 50.439 47.0537 51.2204C46.2723 52.0018 45.8333 53.0616 45.8333 54.1667C45.8333 55.2717 46.2723 56.3315 47.0537 57.1129C47.8351 57.8943 48.8949 58.3333 50 58.3333ZM50 75C51.105 75 52.1648 74.561 52.9462 73.7796C53.7276 72.9982 54.1666 71.9384 54.1666 70.8333C54.1666 69.7283 53.7276 68.6685 52.9462 67.8871C52.1648 67.1056 51.105 66.6667 50 66.6667C48.8949 66.6667 47.8351 67.1056 47.0537 67.8871C46.2723 68.6685 45.8333 69.7283 45.8333 70.8333C45.8333 71.9384 46.2723 72.9982 47.0537 73.7796C47.8351 74.561 48.8949 75 50 75ZM66.6666 58.3333C67.7717 58.3333 68.8315 57.8943 69.6129 57.1129C70.3943 56.3315 70.8333 55.2717 70.8333 54.1667C70.8333 53.0616 70.3943 52.0018 69.6129 51.2204C68.8315 50.439 67.7717 50 66.6666 50C65.5616 50 64.5017 50.439 63.7203 51.2204C62.9389 52.0018 62.5 53.0616 62.5 54.1667C62.5 55.2717 62.9389 56.3315 63.7203 57.1129C64.5017 57.8943 65.5616 58.3333 66.6666 58.3333ZM66.6666 75C67.7717 75 68.8315 74.561 69.6129 73.7796C70.3943 72.9982 70.8333 71.9384 70.8333 70.8333C70.8333 69.7283 70.3943 68.6685 69.6129 67.8871C68.8315 67.1056 67.7717 66.6667 66.6666 66.6667C65.5616 66.6667 64.5017 67.1056 63.7203 67.8871C62.9389 68.6685 62.5 69.7283 62.5 70.8333C62.5 71.9384 62.9389 72.9982 63.7203 73.7796C64.5017 74.561 65.5616 75 66.6666 75Z" fill="#1B2E4B"/>
</svg>
