<svg width="100" height="100" viewBox="0 0 100 100" fill="none" xmlns="http://www.w3.org/2000/svg">
<path fill-rule="evenodd" clip-rule="evenodd" d="M47.9166 12.5C52.013 12.4989 55.9969 13.8394 59.2595 16.3164C62.5221 18.7934 64.8837 22.2707 65.9833 26.2167L66.2 27.0708L73.9916 25.125C74.5611 24.9832 75.1542 24.9634 75.7319 25.0668C76.3096 25.1701 76.859 25.3944 77.344 25.7248C77.829 26.0552 78.2388 26.4844 78.5464 26.9842C78.854 27.484 79.0526 28.0431 79.1291 28.625L79.1666 29.1667V36.7083C81.5168 38.9595 83.4421 41.6159 84.85 44.55L85.425 45.8333H87.5C88.5205 45.8335 89.5055 46.2081 90.2682 46.8863C91.0308 47.5645 91.5181 48.499 91.6375 49.5125L91.6666 50V62.5C91.6667 63.1858 91.4976 63.861 91.1741 64.4658C90.8507 65.0705 90.383 65.586 89.8125 65.9667L89.3625 66.225L84.4958 68.6625C82.5069 72.5193 79.6203 75.8418 76.0791 78.35L75 79.075V83.3333C74.9998 84.3539 74.6252 85.3389 73.947 86.1015C73.2688 86.8642 72.3344 87.3514 71.3208 87.4708L70.8333 87.5H58.3333C57.3128 87.4999 56.3277 87.1252 55.5651 86.447C54.8024 85.7689 54.3152 84.8344 54.1958 83.8208L54.1666 83.3333H50C49.9998 84.3539 49.6252 85.3389 48.947 86.1015C48.2688 86.8642 47.3344 87.3514 46.3208 87.4708L45.8333 87.5H33.3333C32.3128 87.4999 31.3277 87.1252 30.5651 86.447C29.8025 85.7689 29.3152 84.8344 29.1958 83.8208L29.1666 83.3333V79.075C26.1554 77.152 23.5543 74.6521 21.5134 71.7195C19.4725 68.7868 18.032 65.4793 17.275 61.9875C14.8174 61.2573 12.6438 59.7891 11.0488 57.7819C9.45375 55.7747 8.51449 53.3257 8.35831 50.7667L8.33331 50V47.9167C8.33449 46.8547 8.74114 45.8332 9.47018 45.061C10.1992 44.2887 11.1956 43.824 12.2558 43.7618C13.316 43.6995 14.3599 44.0445 15.1743 44.7261C15.9887 45.4077 16.512 46.3746 16.6375 47.4292L16.6666 47.9167V50C16.6722 50.6222 16.7972 51.1986 17.0416 51.7292C17.6766 47.9776 19.0949 44.402 21.2042 41.2352C23.3134 38.0685 26.0663 35.3817 29.2833 33.35C28.9877 30.727 29.2492 28.0712 30.0508 25.5562C30.8523 23.0413 32.1758 20.7239 33.9348 18.7558C35.6937 16.7876 37.8483 15.213 40.2577 14.135C42.6672 13.057 45.2771 12.4998 47.9166 12.5ZM66.6666 45.8333C65.5616 45.8333 64.5018 46.2723 63.7204 47.0537C62.939 47.8351 62.5 48.8949 62.5 50C62.5 51.1051 62.939 52.1649 63.7204 52.9463C64.5018 53.7277 65.5616 54.1667 66.6666 54.1667C67.7717 54.1667 68.8315 53.7277 69.6129 52.9463C70.3943 52.1649 70.8333 51.1051 70.8333 50C70.8333 48.8949 70.3943 47.8351 69.6129 47.0537C68.8315 46.2723 67.7717 45.8333 66.6666 45.8333ZM47.9166 20.8333C45.3929 20.8333 42.9549 21.7496 41.0558 23.4118C39.1568 25.0741 37.9258 27.3693 37.5916 29.8708C39.6107 29.4012 41.677 29.1649 43.75 29.1667H57.8208L58.1125 29.0958C57.6184 26.7582 56.3356 24.6614 54.4793 23.1571C52.623 21.6528 50.306 20.8323 47.9166 20.8333Z" fill="#1B2E4B"/>
</svg>
