<svg width="85" height="85" viewBox="0 0 85 85" fill="none" xmlns="http://www.w3.org/2000/svg">
<path fill-rule="evenodd" clip-rule="evenodd" d="M48.27 72.5049L46.3504 75.7491C44.6398 78.6391 40.365 78.6391 38.6509 75.7491L36.7313 72.5049C35.2438 69.9903 34.5 68.7295 33.3029 68.0353C32.1059 67.3376 30.6007 67.3128 27.5902 67.2597C23.1419 67.1853 20.3546 66.9126 18.0171 65.9422C15.8686 65.0523 13.9164 63.7479 12.2721 62.1035C10.6277 60.4591 9.32329 58.507 8.43336 56.3585C7.08398 53.1072 7.08398 48.9812 7.08398 40.7291V37.1874C7.08398 25.5955 7.08398 19.7978 9.69419 15.5408C11.1535 13.1579 13.156 11.1542 15.5379 9.69346C19.7986 7.08325 25.5998 7.08325 37.1882 7.08325H47.8132C59.405 7.08325 65.2027 7.08325 69.4634 9.69346C71.8449 11.1532 73.8474 13.1557 75.3071 15.5372C77.9173 19.7978 77.9173 25.5991 77.9173 37.1874V40.7291C77.9173 48.9812 77.9173 53.1072 76.5715 56.3585C75.6812 58.5073 74.3762 60.4596 72.7312 62.1041C71.0862 63.7485 69.1333 65.0527 66.9842 65.9422C64.6467 66.9126 61.8594 67.1818 57.4111 67.2597C54.4006 67.3128 52.8954 67.3376 51.6984 68.0353C50.5013 68.7295 49.7575 69.9868 48.27 72.5049ZM28.334 41.6145C27.6295 41.6145 26.9539 41.8944 26.4557 42.3925C25.9576 42.8906 25.6777 43.5663 25.6777 44.2708C25.6777 44.9752 25.9576 45.6509 26.4557 46.149C26.9539 46.6471 27.6295 46.927 28.334 46.927H47.8132C48.5176 46.927 49.1933 46.6471 49.6914 46.149C50.1895 45.6509 50.4694 44.9752 50.4694 44.2708C50.4694 43.5663 50.1895 42.8906 49.6914 42.3925C49.1933 41.8944 48.5176 41.6145 47.8132 41.6145H28.334ZM25.6777 31.8749C25.6777 31.1704 25.9576 30.4948 26.4557 29.9967C26.9539 29.4985 27.6295 29.2187 28.334 29.2187H56.6673C57.3718 29.2187 58.0474 29.4985 58.5456 29.9967C59.0437 30.4948 59.3236 31.1704 59.3236 31.8749C59.3236 32.5794 59.0437 33.255 58.5456 33.7532C58.0474 34.2513 57.3718 34.5312 56.6673 34.5312H28.334C27.6295 34.5312 26.9539 34.2513 26.4557 33.7532C25.9576 33.255 25.6777 32.5794 25.6777 31.8749Z" fill="#861043"/>
</svg>
