<svg width="100" height="100" viewBox="0 0 100 100" fill="none" xmlns="http://www.w3.org/2000/svg">
<circle cx="50" cy="50" r="50" fill="#1B2E4B"/>
<path d="M61.4445 25.3333C69.1112 25.3333 75.3334 31.5556 75.3334 39.2222V61.4445C75.3334 69.1111 69.1112 75.3333 61.4445 75.3333H39.2223C31.5556 75.3333 25.3334 69.1111 25.3334 61.4445V39.2222C25.3334 31.5556 31.5556 25.3333 39.2223 25.3333H50.3334H61.4445Z" stroke="#F8FAFC" stroke-width="8.33333" stroke-linecap="round" stroke-linejoin="round"/>
<path d="M50.3334 39.2222C56.4723 39.2222 61.4445 44.1945 61.4445 50.3333C61.4445 56.4722 56.4723 61.4445 50.3334 61.4445C44.1945 61.4445 39.2223 56.4722 39.2223 50.3333C39.2223 44.1945 44.1945 39.2222 50.3334 39.2222Z" stroke="#F8FAFC" stroke-width="8.33333" stroke-linecap="round" stroke-linejoin="round"/>
<path d="M64.2222 40.6111C66.5234 40.6111 68.3889 38.7456 68.3889 36.4444C68.3889 34.1433 66.5234 32.2778 64.2222 32.2778C61.921 32.2778 60.0555 34.1433 60.0555 36.4444C60.0555 38.7456 61.921 40.6111 64.2222 40.6111Z" fill="#F8FAFC"/>
</svg>
