<svg width="100" height="100" viewBox="0 0 100 100" fill="none" xmlns="http://www.w3.org/2000/svg">
<circle cx="50" cy="50" r="50" fill="#2E9CDB"/>
<path d="M53.3333 53.3333H80V73.3333C80 75.1667 79.3478 76.7367 78.0433 78.0433C76.7389 79.35 75.1689 80.0022 73.3333 80H53.3333V53.3333ZM53.3333 46.6667V20H73.3333C75.1667 20 76.7367 20.6533 78.0433 21.96C79.35 23.2667 80.0022 24.8356 80 26.6667V46.6667H53.3333ZM46.6667 46.6667H20V26.6667C20 24.8333 20.6533 23.2644 21.96 21.96C23.2667 20.6556 24.8356 20.0022 26.6667 20H46.6667V46.6667ZM46.6667 53.3333V80H26.6667C24.8333 80 23.2644 79.3478 21.96 78.0433C20.6556 76.7389 20.0022 75.1689 20 73.3333V53.3333H46.6667Z" fill="#FAF6ED"/>
</svg>
