<svg width="85" height="85" viewBox="0 0 85 85" fill="none" xmlns="http://www.w3.org/2000/svg">
<path d="M17.4575 58.0071C11.0471 59.9302 7.08398 62.5865 7.08398 65.5207C7.08398 71.3893 22.94 76.1457 42.5006 76.1457C62.0613 76.1457 77.9173 71.3893 77.9173 65.5207C77.9173 62.5865 73.9524 59.9302 67.5438 58.0071" stroke="#861043" stroke-width="4" stroke-linecap="round" stroke-linejoin="round"/>
<path d="M42.5013 61.9791C42.5013 61.9791 65.5221 46.9341 65.5221 29.541C65.5221 17.138 55.2159 7.08325 42.5013 7.08325C29.7867 7.08325 19.4805 17.138 19.4805 29.541C19.4805 46.9341 42.5013 61.9791 42.5013 61.9791Z" fill="#861043"/>
<path d="M42.5007 38.9583C44.8489 38.9583 47.101 38.0255 48.7615 36.365C50.422 34.7045 51.3548 32.4524 51.3548 30.1042C51.3548 27.7559 50.422 25.5038 48.7615 23.8433C47.101 22.1828 44.8489 21.25 42.5007 21.25C40.1524 21.25 37.9003 22.1828 36.2398 23.8433C34.5793 25.5038 33.6465 27.7559 33.6465 30.1042C33.6465 32.4524 34.5793 34.7045 36.2398 36.365C37.9003 38.0255 40.1524 38.9583 42.5007 38.9583Z" fill="#E8C0C9" stroke="#E8C0C9" stroke-width="4" stroke-linejoin="round"/>
</svg>
