<svg width="85" height="85" viewBox="0 0 85 85" fill="none" xmlns="http://www.w3.org/2000/svg">
<path fill-rule="evenodd" clip-rule="evenodd" d="M40.7298 10.625C44.2117 10.6241 47.5981 11.7635 50.3712 13.8689C53.1444 15.9744 55.1518 18.9301 56.0865 22.2842L56.2707 23.0102L62.8936 21.3563C63.3776 21.2358 63.8817 21.2189 64.3728 21.3067C64.8638 21.3946 65.3308 21.5852 65.7431 21.8661C66.1553 22.1469 66.5036 22.5117 66.7651 22.9366C67.0266 23.3614 67.1954 23.8367 67.2604 24.3313L67.2923 24.7917V31.2021C69.29 33.1156 70.9264 35.3735 72.1232 37.8675L72.6119 38.9583H74.3757C75.2431 38.9584 76.0804 39.2769 76.7286 39.8534C77.3769 40.4298 77.791 41.2241 77.8925 42.0856L77.9173 42.5V53.125C77.9174 53.7079 77.7736 54.2819 77.4987 54.7959C77.2237 55.3099 76.8262 55.7481 76.3413 56.0717L75.9588 56.2913L71.8221 58.3631C70.1315 61.6414 67.6779 64.4655 64.6679 66.5975L63.7507 67.2138V70.8333C63.7505 71.7008 63.4321 72.5381 62.8556 73.1863C62.2792 73.8346 61.4849 74.2487 60.6234 74.3502L60.209 74.375H49.584C48.7165 74.3749 47.8792 74.0564 47.231 73.48C46.5828 72.9035 46.1686 72.1092 46.0671 71.2477L46.0423 70.8333H42.5007C42.5005 71.7008 42.1821 72.5381 41.6056 73.1863C41.0292 73.8346 40.2349 74.2487 39.3734 74.3502L38.959 74.375H28.334C27.4665 74.3749 26.6292 74.0564 25.981 73.48C25.3328 72.9035 24.9186 72.1092 24.8171 71.2477L24.7923 70.8333V67.2138C22.2327 65.5792 20.0219 63.4543 18.2871 60.9616C16.5523 58.4688 15.3279 55.6574 14.6844 52.6894C12.5955 52.0687 10.7479 50.8208 9.39212 49.1146C8.03636 47.4085 7.23799 45.3268 7.10523 43.1517L7.08398 42.5V40.7292C7.08499 39.8265 7.43064 38.9582 8.05032 38.3018C8.67001 37.6454 9.51694 37.2504 10.4181 37.1975C11.3192 37.1446 12.2066 37.4378 12.8988 38.0172C13.591 38.5966 14.0359 39.4184 14.1425 40.3148L14.1673 40.7292V42.5C14.172 43.0289 14.2783 43.5188 14.4861 43.9698C15.0258 40.781 16.2314 37.7417 18.0242 35.05C19.8171 32.3582 22.157 30.0745 24.8915 28.3475C24.6402 26.118 24.8625 23.8605 25.5438 21.7228C26.2251 19.5851 27.3501 17.6153 28.8452 15.9424C30.3403 14.2695 32.1718 12.9311 34.2198 12.0147C36.2678 11.0984 38.4862 10.6248 40.7298 10.625ZM56.6673 38.9583C55.728 38.9583 54.8272 39.3315 54.163 39.9957C53.4988 40.6599 53.1257 41.5607 53.1257 42.5C53.1257 43.4393 53.4988 44.3401 54.163 45.0043C54.8272 45.6685 55.728 46.0417 56.6673 46.0417C57.6066 46.0417 58.5075 45.6685 59.1717 45.0043C59.8358 44.3401 60.209 43.4393 60.209 42.5C60.209 41.5607 59.8358 40.6599 59.1717 39.9957C58.5075 39.3315 57.6066 38.9583 56.6673 38.9583ZM40.7298 17.7083C38.5846 17.7083 36.5123 18.4871 34.8981 19.9001C33.2839 21.313 32.2376 23.2639 31.9536 25.3902C33.6698 24.991 35.4261 24.7902 37.1882 24.7917H49.1484L49.3963 24.7315C48.9763 22.7444 47.886 20.9622 46.3081 19.6835C44.7302 18.4049 42.7607 17.7075 40.7298 17.7083Z" fill="#861043"/>
</svg>
