<svg width="100" height="100" viewBox="0 0 100 100" fill="none" xmlns="http://www.w3.org/2000/svg">
<circle cx="50" cy="50" r="50" fill="#1B2E4B"/>
<path d="M40 84.3334C38.1667 84.3334 36.5978 83.6811 35.2933 82.3767C33.9889 81.0722 33.3356 79.5022 33.3333 77.6667V64.3334H28C25.7778 64.3334 23.8889 63.5556 22.3333 62C20.7778 60.4445 20 58.5556 20 56.3334C20 54.7222 20.4444 53.2367 21.3333 51.8767C22.2222 50.5167 23.3889 49.5022 24.8333 48.8334L46.6667 39.1667V37C44.6667 36.2778 43.0556 35.07 41.8333 33.3767C40.6111 31.6834 40 29.78 40 27.6667C40 24.8889 40.9722 22.5278 42.9167 20.5834C44.8611 18.6389 47.2222 17.6667 50 17.6667C52 17.6667 53.8333 18.2222 55.5 19.3334C57.1667 20.4445 58.3889 21.8889 59.1667 23.6667L59.5 25.0834C59.5 26.0278 59.18 26.82 58.54 27.46C57.9 28.1 57.1089 28.4189 56.1667 28.4167C55.4444 28.4167 54.82 28.2222 54.2933 27.8334C53.7667 27.4445 53.3633 26.9445 53.0833 26.3334C52.8033 25.7222 52.3867 25.2367 51.8333 24.8767C51.28 24.5167 50.6689 24.3356 50 24.3334C49.0556 24.3334 48.2644 24.6534 47.6267 25.2934C46.9889 25.9334 46.6689 26.7245 46.6667 27.6667C46.6644 28.6089 46.9844 29.4011 47.6267 30.0434C48.2689 30.6856 49.06 31.0045 50 31C50.94 30.9956 51.7322 31.3156 52.3767 31.96C53.0211 32.6045 53.34 33.3956 53.3333 34.3334V39.1667L75.1667 48.8334C76.6111 49.5 77.7778 50.5145 78.6667 51.8767C79.5556 53.2389 80 54.7245 80 56.3334C80 58.5556 79.2222 60.4445 77.6667 62C76.1111 63.5556 74.2222 64.3334 72 64.3334H66.6667V77.6667C66.6667 79.5 66.0144 81.07 64.71 82.3767C63.4056 83.6833 61.8356 84.3356 60 84.3334H40ZM28 57.6667H34.25C34.8611 56.6667 35.6667 55.8611 36.6667 55.25C37.6667 54.6389 38.7778 54.3334 40 54.3334H60C61.2222 54.3334 62.3333 54.6389 63.3333 55.25C64.3333 55.8611 65.1389 56.6667 65.75 57.6667H72C72.3889 57.6667 72.7089 57.5278 72.96 57.25C73.2111 56.9722 73.3356 56.6111 73.3333 56.1667C73.3333 55.8889 73.2644 55.6522 73.1267 55.4567C72.9889 55.2611 72.78 55.1089 72.5 55L50 45L27.5 55C27.2222 55.1111 27.0144 55.2645 26.8767 55.46C26.7389 55.6556 26.6689 55.8911 26.6667 56.1667C26.6667 56.6111 26.7922 56.9722 27.0433 57.25C27.2944 57.5278 27.6133 57.6667 28 57.6667ZM40 77.6667H60V61H40V77.6667Z" fill="#FAF6ED"/>
</svg>
