<svg width="85" height="85" viewBox="0 0 85 85" fill="none" xmlns="http://www.w3.org/2000/svg">
<path fill-rule="evenodd" clip-rule="evenodd" d="M40.0138 7.77392C41.6168 7.17302 43.3832 7.17302 44.9862 7.77392L69.7779 17.0708C71.1284 17.577 72.2921 18.4834 73.1136 19.6688C73.9351 20.8542 74.3752 22.2621 74.375 23.7043V42.6983C74.3751 48.6179 72.7268 54.4207 69.6148 59.4562C66.5027 64.4918 62.0499 68.5613 56.7552 71.2087L44.8765 77.1445C44.1386 77.5136 43.325 77.7057 42.5 77.7057C41.675 77.7057 40.8614 77.5136 40.1235 77.1445L28.2448 71.2052C22.9501 68.5578 18.4973 64.4883 15.3852 59.4527C12.2732 54.4171 10.6249 48.6144 10.625 42.6948V23.7079C10.6241 22.265 11.0638 20.8564 11.8854 19.6703C12.7069 18.4842 13.8711 17.5772 15.2221 17.0708L40.0138 7.77392ZM46.0417 41.5508C47.392 40.7711 48.4473 39.5677 49.0439 38.1271C49.6406 36.6866 49.7452 35.0894 49.3417 33.5833C48.9381 32.0772 48.0489 30.7463 46.8119 29.7971C45.5749 28.8479 44.0592 28.3334 42.5 28.3333C40.9408 28.3334 39.4251 28.8479 38.1881 29.7971C36.9511 30.7463 36.0619 32.0772 35.6583 33.5833C35.2548 35.0894 35.3594 36.6866 35.9561 38.1271C36.5527 39.5677 37.608 40.7711 38.9583 41.5508V53.125C38.9583 54.0643 39.3315 54.9651 39.9957 55.6293C40.6599 56.2935 41.5607 56.6666 42.5 56.6666C43.4393 56.6666 44.3401 56.2935 45.0043 55.6293C45.6685 54.9651 46.0417 54.0643 46.0417 53.125V41.5508Z" fill="#861043"/>
</svg>
