<svg width="40" height="40" viewBox="0 0 40 40" fill="none" xmlns="http://www.w3.org/2000/svg">
<path d="M20.0007 3.33325C10.8007 3.33325 3.33398 10.7999 3.33398 19.9999C3.33398 29.1999 10.8007 36.6666 20.0007 36.6666C29.2007 36.6666 36.6673 29.1999 36.6673 19.9999C36.6673 10.7999 29.2007 3.33325 20.0007 3.33325ZM27.734 14.6666C27.484 17.2999 26.4007 23.6999 25.8507 26.6499C25.6173 27.8999 25.1507 28.3166 24.7173 28.3666C23.7507 28.4499 23.0173 27.7333 22.084 27.1166C20.6173 26.1499 19.784 25.5499 18.3673 24.6166C16.7173 23.5333 17.784 22.9333 18.734 21.9666C18.984 21.7166 23.2507 17.8333 23.334 17.4833C23.3456 17.4302 23.344 17.3752 23.3295 17.3229C23.315 17.2706 23.2879 17.2227 23.2507 17.1833C23.1507 17.0999 23.0173 17.1333 22.9007 17.1499C22.7507 17.1833 20.4173 18.7333 15.8673 21.7999C15.2007 22.2499 14.6006 22.4833 14.0673 22.4666C13.4673 22.4499 12.334 22.1333 11.484 21.8499C10.434 21.5166 9.61732 21.3333 9.68398 20.7499C9.71732 20.4499 10.134 20.1499 10.9173 19.8333C15.784 17.7166 19.0173 16.3166 20.634 15.6499C25.2673 13.7166 26.2173 13.3833 26.8507 13.3833C26.984 13.3833 27.3006 13.4166 27.5007 13.5833C27.6673 13.7166 27.7173 13.8999 27.734 14.0333C27.7173 14.1333 27.7506 14.4333 27.734 14.6666Z" fill="#E8C0C9"/>
</svg>
