<svg width="100" height="100" viewBox="0 0 100 100" fill="none" xmlns="http://www.w3.org/2000/svg">
<circle cx="50" cy="50" r="50" fill="#1B2E4B"/>
<path d="M63.1111 33.1667C61.2127 30.9987 60.1664 28.215 60.1667 25.3333H51.5833V59.7778C51.5185 61.6422 50.732 63.4086 49.3897 64.7042C48.0475 65.9998 46.2544 66.7234 44.3889 66.7222C40.4444 66.7222 37.1667 63.5 37.1667 59.5C37.1667 54.7222 41.7778 51.1389 46.5278 52.6111V43.8333C36.9444 42.5556 28.5555 50 28.5555 59.5C28.5555 68.75 36.2222 75.3333 44.3611 75.3333C53.0833 75.3333 60.1667 68.25 60.1667 59.5V42.0278C63.6472 44.5274 67.826 45.8685 72.1111 45.8611V37.2778C72.1111 37.2778 66.8889 37.5278 63.1111 33.1667Z" fill="#F8FAFC"/>
</svg>
