<svg width="30" height="30" viewBox="0 0 30 30" fill="none" xmlns="http://www.w3.org/2000/svg">
<path fill-rule="evenodd" clip-rule="evenodd" d="M10 5.00002C8.67392 5.00002 7.40215 5.5268 6.46447 6.46448C5.52678 7.40216 5 8.67393 5 10C5 11.3261 5.52678 12.5979 6.46447 13.5356C7.40215 14.4732 8.67392 15 10 15C11.3261 15 12.5979 14.4732 13.5355 13.5356C14.4732 12.5979 15 11.3261 15 10C15 8.67393 14.4732 7.40216 13.5355 6.46448C12.5979 5.5268 11.3261 5.00002 10 5.00002ZM7.5 16.25C6.17392 16.25 4.90215 16.7768 3.96447 17.7145C3.02678 18.6522 2.5 19.9239 2.5 21.25V22.5C2.5 23.1631 2.76339 23.7989 3.23223 24.2678C3.70107 24.7366 4.33696 25 5 25H15C15.663 25 16.2989 24.7366 16.7678 24.2678C17.2366 23.7989 17.5 23.1631 17.5 22.5V21.25C17.5 19.9239 16.9732 18.6522 16.0355 17.7145C15.0979 16.7768 13.8261 16.25 12.5 16.25H7.5ZM16.5625 13.6313C17.16 12.5563 17.5 11.3188 17.5 10C17.5003 8.72932 17.1777 7.47938 16.5625 6.36752C17.2723 5.69593 18.1633 5.24703 19.1254 5.0763C20.0875 4.90558 21.0785 5.0205 21.9761 5.40687C22.8736 5.79325 23.6382 6.43413 24.1754 7.25033C24.7127 8.06652 24.999 9.02225 24.999 9.99939C24.999 10.9765 24.7127 11.9323 24.1754 12.7485C23.6382 13.5647 22.8736 14.2055 21.9761 14.5919C21.0785 14.9783 20.0875 15.0932 19.1254 14.9225C18.1633 14.7518 17.2723 14.3029 16.5625 13.6313ZM19.3325 25C19.7575 24.265 20.0012 23.4113 20.0012 22.5V21.25C20.0036 19.4047 19.3232 17.6238 18.0912 16.25H22.5C23.8261 16.25 25.0979 16.7768 26.0355 17.7145C26.9732 18.6522 27.5 19.9239 27.5 21.25V22.5C27.5 23.1631 27.2366 23.7989 26.7678 24.2678C26.2989 24.7366 25.663 25 25 25H19.3325Z" fill="#861043"/>
</svg>
