<svg width="40" height="40" viewBox="0 0 40 40" fill="none" xmlns="http://www.w3.org/2000/svg">
<path d="M31.7493 8.18334C30.2211 6.64018 28.4011 5.41662 26.3952 4.58395C24.3893 3.75127 22.2378 3.32615 20.066 3.33334C10.966 3.33334 3.54935 10.75 3.54935 19.85C3.54935 22.7667 4.31602 25.6 5.74935 28.1L3.41602 36.6667L12.166 34.3667C14.5827 35.6833 17.2993 36.3833 20.066 36.3833C29.166 36.3833 36.5827 28.9667 36.5827 19.8667C36.5827 15.45 34.866 11.3 31.7493 8.18334ZM20.066 33.5833C17.5993 33.5833 15.1827 32.9167 13.066 31.6667L12.566 31.3667L7.36602 32.7333L8.74935 27.6667L8.41602 27.15C7.04526 24.9618 6.31756 22.4321 6.31602 19.85C6.31602 12.2833 12.4827 6.11667 20.0493 6.11667C23.716 6.11667 27.166 7.55001 29.7493 10.15C31.0287 11.4231 32.0425 12.9376 32.7321 14.6056C33.4216 16.2735 33.773 18.0618 33.766 19.8667C33.7994 27.4333 27.6327 33.5833 20.066 33.5833ZM27.5993 23.3167C27.1827 23.1167 25.1493 22.1167 24.7827 21.9667C24.3993 21.8333 24.1327 21.7667 23.8493 22.1667C23.566 22.5833 22.7827 23.5167 22.5493 23.7833C22.316 24.0667 22.066 24.1 21.6493 23.8833C21.2327 23.6833 19.8993 23.2333 18.3327 21.8333C17.0993 20.7333 16.2827 19.3833 16.0327 18.9667C15.7993 18.55 15.9993 18.3333 16.216 18.1167C16.3993 17.9333 16.6327 17.6333 16.8327 17.4C17.0327 17.1667 17.116 16.9833 17.2493 16.7167C17.3827 16.4333 17.316 16.2 17.216 16C17.116 15.8 16.2827 13.7667 15.9493 12.9333C15.616 12.1333 15.266 12.2333 15.016 12.2167H14.216C13.9327 12.2167 13.4993 12.3167 13.116 12.7333C12.7493 13.15 11.6827 14.15 11.6827 16.1833C11.6827 18.2167 13.166 20.1833 13.366 20.45C13.566 20.7333 16.2827 24.9 20.416 26.6833C21.3993 27.1167 22.166 27.3667 22.766 27.55C23.7493 27.8667 24.6493 27.8167 25.366 27.7167C26.166 27.6 27.816 26.7167 28.1493 25.75C28.4993 24.7833 28.4993 23.9667 28.3827 23.7833C28.266 23.6 28.016 23.5167 27.5993 23.3167Z" fill="#E8C0C9"/>
</svg>
